<?xml version="1.0" encoding="UTF-8" standalone="no"?><!DOCTYPE svg PUBLIC "-//W3C//DTD SVG 1.1//EN" "http://www.w3.org/Graphics/SVG/1.1/DTD/svg11.dtd"><svg width="100%" height="100%" viewBox="0 0 24 24" version="1.1" xmlns="http://www.w3.org/2000/svg" xmlns:xlink="http://www.w3.org/1999/xlink" xml:space="preserve" xmlns:serif="http://www.serif.com/" style="fill-rule:evenodd;clip-rule:evenodd;stroke-linejoin:round;stroke-miterlimit:2;"><path d="M20.616,10.835c-1.661,-0.707 -3.172,-1.726 -4.45,-3.001c-1.78,-1.784 -3.05,-4.012 -3.678,-6.452c-0.056,-0.222 -0.258,-0.379 -0.487,-0.379c-0.229,0 -0.431,0.157 -0.487,0.379c-0.629,2.44 -1.9,4.668 -3.679,6.452c-1.278,1.275 -2.789,2.294 -4.45,3.001c-0.65,0.28 -1.318,0.505 -2.002,0.678c-0.224,0.055 -0.382,0.257 -0.382,0.488c0,0.23 0.159,0.433 0.382,0.487c0.684,0.172 1.35,0.397 2.002,0.677c1.661,0.707 3.172,1.726 4.45,3.001c1.78,1.784 3.051,4.012 3.679,6.453c0.055,0.224 0.257,0.382 0.487,0.382c0.23,0 0.433,-0.159 0.487,-0.382c0.172,-0.685 0.397,-1.351 0.677,-2.003c0.707,-1.661 1.726,-3.172 3.001,-4.45c1.784,-1.78 4.012,-3.05 6.453,-3.678c0.222,-0.056 0.379,-0.258 0.379,-0.488c0,-0.229 -0.157,-0.431 -0.379,-0.488c-0.685,-0.172 -1.354,-0.399 -2.003,-0.678Z" style="fill:#3186ff;fill-rule:nonzero;"/><path d="M20.616,10.835c-1.661,-0.707 -3.172,-1.726 -4.45,-3.001c-1.78,-1.784 -3.05,-4.012 -3.678,-6.452c-0.056,-0.222 -0.258,-0.379 -0.487,-0.379c-0.229,0 -0.431,0.157 -0.487,0.379c-0.629,2.44 -1.9,4.668 -3.679,6.452c-1.278,1.275 -2.789,2.294 -4.45,3.001c-0.65,0.28 -1.318,0.505 -2.002,0.678c-0.224,0.055 -0.382,0.257 -0.382,0.488c0,0.23 0.159,0.433 0.382,0.487c0.684,0.172 1.35,0.397 2.002,0.677c1.661,0.707 3.172,1.726 4.45,3.001c1.78,1.784 3.051,4.012 3.679,6.453c0.055,0.224 0.257,0.382 0.487,0.382c0.23,0 0.433,-0.159 0.487,-0.382c0.172,-0.685 0.397,-1.351 0.677,-2.003c0.707,-1.661 1.726,-3.172 3.001,-4.45c1.784,-1.78 4.012,-3.05 6.453,-3.678c0.222,-0.056 0.379,-0.258 0.379,-0.488c0,-0.229 -0.157,-0.431 -0.379,-0.488c-0.685,-0.172 -1.354,-0.399 -2.003,-0.678Z" style="fill:url(#_Linear1);fill-rule:nonzero;"/><path d="M20.616,10.835c-1.661,-0.707 -3.172,-1.726 -4.45,-3.001c-1.78,-1.784 -3.05,-4.012 -3.678,-6.452c-0.056,-0.222 -0.258,-0.379 -0.487,-0.379c-0.229,0 -0.431,0.157 -0.487,0.379c-0.629,2.44 -1.9,4.668 -3.679,6.452c-1.278,1.275 -2.789,2.294 -4.45,3.001c-0.65,0.28 -1.318,0.505 -2.002,0.678c-0.224,0.055 -0.382,0.257 -0.382,0.488c0,0.23 0.159,0.433 0.382,0.487c0.684,0.172 1.35,0.397 2.002,0.677c1.661,0.707 3.172,1.726 4.45,3.001c1.78,1.784 3.051,4.012 3.679,6.453c0.055,0.224 0.257,0.382 0.487,0.382c0.23,0 0.433,-0.159 0.487,-0.382c0.172,-0.685 0.397,-1.351 0.677,-2.003c0.707,-1.661 1.726,-3.172 3.001,-4.45c1.784,-1.78 4.012,-3.05 6.453,-3.678c0.222,-0.056 0.379,-0.258 0.379,-0.488c0,-0.229 -0.157,-0.431 -0.379,-0.488c-0.685,-0.172 -1.354,-0.399 -2.003,-0.678Z" style="fill:url(#_Linear2);fill-rule:nonzero;"/><path d="M20.616,10.835c-1.661,-0.707 -3.172,-1.726 -4.45,-3.001c-1.78,-1.784 -3.05,-4.012 -3.678,-6.452c-0.056,-0.222 -0.258,-0.379 -0.487,-0.379c-0.229,0 -0.431,0.157 -0.487,0.379c-0.629,2.44 -1.9,4.668 -3.679,6.452c-1.278,1.275 -2.789,2.294 -4.45,3.001c-0.65,0.28 -1.318,0.505 -2.002,0.678c-0.224,0.055 -0.382,0.257 -0.382,0.488c0,0.23 0.159,0.433 0.382,0.487c0.684,0.172 1.35,0.397 2.002,0.677c1.661,0.707 3.172,1.726 4.45,3.001c1.78,1.784 3.051,4.012 3.679,6.453c0.055,0.224 0.257,0.382 0.487,0.382c0.23,0 0.433,-0.159 0.487,-0.382c0.172,-0.685 0.397,-1.351 0.677,-2.003c0.707,-1.661 1.726,-3.172 3.001,-4.45c1.784,-1.78 4.012,-3.05 6.453,-3.678c0.222,-0.056 0.379,-0.258 0.379,-0.488c0,-0.229 -0.157,-0.431 -0.379,-0.488c-0.685,-0.172 -1.354,-0.399 -2.003,-0.678Z" style="fill:url(#_Linear3);fill-rule:nonzero;"/><defs><linearGradient id="_Linear1" x1="0" y1="0" x2="1" y2="0" gradientUnits="userSpaceOnUse" gradientTransform="matrix(4,-3.5,3.5,4,7,15.5)"><stop offset="0" style="stop-color:#08b962;stop-opacity:1"/><stop offset="1" style="stop-color:#08b962;stop-opacity:0"/></linearGradient><linearGradient id="_Linear2" x1="0" y1="0" x2="1" y2="0" gradientUnits="userSpaceOnUse" gradientTransform="matrix(3.5,5.5,-5.5,3.5,8,5.5)"><stop offset="0" style="stop-color:#f94543;stop-opacity:1"/><stop offset="1" style="stop-color:#f94543;stop-opacity:0"/></linearGradient><linearGradient id="_Linear3" x1="0" y1="0" x2="1" y2="0" gradientUnits="userSpaceOnUse" gradientTransform="matrix(14,-1.5,1.5,14,3.5,13.5)"><stop offset="0" style="stop-color:#fabc12;stop-opacity:1"/><stop offset="0.46" style="stop-color:#fabc12;stop-opacity:0"/><stop offset="1" style="stop-color:#fabc12;stop-opacity:0"/></linearGradient></defs></svg>